<svg xmlns="http://www.w3.org/2000/svg" version="1.1" xmlnsXlink="http://www.w3.org/1999/xlink" xmlnsSvgjs="http://svgjs.dev/svgjs" width="128" height="128" viewBox="0 0 128 128"><g transform="matrix(0.44782608695652176,0,0,0.44782608695652176,35.339245078260866,12.5)"><svg viewBox="0 0 125 225" data-background-color="#ffffff" preserveAspectRatio="xMidYMid meet" height="230" width="128" xmlns="http://www.w3.org/2000/svg" xmlnsXlink="http://www.w3.org/1999/xlink"><g id="tight-bounds" transform="matrix(1,0,0,1,0,0)"><svg viewBox="0 0 125 225" height="225" width="125"><g><svg></svg></g><g><svg viewBox="0 0 125 225" height="225" width="125"><g><path d="M116.207 81.502c-4.854-8.402-44.013-30.998-53.707-30.998-9.694 0-48.839 22.596-53.707 30.998-4.528 7.82-4.528 54.19 0 62.01 4.868 8.388 44.013 30.984 53.707 30.984 9.694 0 48.853-22.596 53.707-30.998 4.528-7.82 4.528-54.176 0-61.996zM120.891 78.791c-5.649-9.765-46.667-33.709-58.391-33.709-11.724 0-52.742 23.944-58.391 33.709-5.479 9.453-5.479 57.965 0 67.418 5.649 9.765 46.667 33.709 58.391 33.709 11.724 0 52.742-23.944 58.391-33.695 5.479-9.467 5.479-57.979 0-67.432zM117.541 144.279c-4.982 8.615-45.106 31.765-55.041 31.764-9.935 0-50.06-23.163-55.041-31.778-4.641-8.019-4.641-55.538 0-63.558 4.982-8.601 45.106-31.75 55.041-31.75 9.935 0 50.06 23.163 55.041 31.764 4.641 8.019 4.641 55.538 0 63.558z" fill="#222222" fill-rule="nonzero" stroke="none" stroke-width="1" stroke-linecap="butt" stroke-linejoin="miter" stroke-miterlimit="10" stroke-dasharray="" stroke-dashoffset="0" font-family="none" font-weight="none" font-size="none" text-anchor="none" style="mix-blend-mode: normal" data-fill-palette-color="tertiary"></path></g><g transform="matrix(1,0,0,1,35.4625,84.82818914956012)"><svg viewBox="0 0 54.075 55.34362170087976" height="55.34362170087976" width="54.075"><g><svg viewBox="0 0 54.075 55.34362170087976" height="55.34362170087976" width="54.075"><g><svg viewBox="0 0 54.075 55.34362170087976" height="55.34362170087976" width="54.075"><g><svg viewBox="0 0 54.075 55.34362170087976" height="55.34362170087976" width="54.075"><g><svg viewBox="0 0 54.075 55.34362170087976" height="55.34362170087976" width="54.075"><g transform="matrix(1,0,0,1,0,0)"><svg width="54.075" viewBox="2.55 -34.55 34.1 34.9" height="55.34362170087976" data-palette-color="#ffffff"><path d="M23.65-24.85L23.65-24.85Q23.65-25.9 22.78-26.65 21.9-27.4 20.7-27.4L20.7-27.4Q18.3-27.4 16.75-24.68 15.2-21.95 15.2-18.5L15.2-18.5Q15.2-15.85 16.2-13.73 17.2-11.6 19.1-10.35 21-9.1 23.5-9.1L23.5-9.1Q25.35-9.1 27.05-9.83 28.75-10.55 29.8-11.43 30.85-12.3 31.98-13.03 33.1-13.75 33.95-13.75L33.95-13.75Q35.05-13.75 35.85-12.88 36.65-12 36.65-11.05L36.65-11.05Q36.65-10 36.02-8.6 35.4-7.2 34.05-5.63 32.7-4.05 30.9-2.73 29.1-1.4 26.43-0.53 23.75 0.35 20.8 0.35L20.8 0.35Q16.9 0.35 13.58-0.83 10.25-2 7.8-4.17 5.35-6.35 3.95-9.65 2.55-12.95 2.55-17.05L2.55-17.05Q2.55-25.15 7.4-29.85 12.25-34.55 20.1-34.55L20.1-34.55Q24.1-34.55 27.5-33.2 30.9-31.85 32.9-29.45 34.9-27.05 34.9-24.2L34.9-24.2Q34.9-20.9 32.7-18.23 30.5-15.55 27-15.55L27-15.55Q25-15.55 23.4-16.65 21.8-17.75 21.8-19.8L21.8-19.8Q21.8-20.75 22.73-22.45 23.65-24.15 23.65-24.85Z" opacity="1" transform="matrix(1,0,0,1,0,0)" fill="#ffffff" class="undefined-text-0" data-fill-palette-color="quaternary" id="text-0"></path></svg></g></svg></g></svg></g></svg></g></svg></g></svg></g></svg></g><defs></defs></svg><rect width="125" height="225" fill="none" stroke="none" visibility="hidden"></rect></g></svg></g></svg>