<svg xmlns="http://www.w3.org/2000/svg" version="1.1" xmlnsXlink="http://www.w3.org/1999/xlink" xmlnsSvgjs="http://svgjs.dev/svgjs" width="2000" height="2000" viewBox="0 0 2000 2000"><g transform="matrix(1,0,0,1,0.8097165991902102,0.8108346800586332)"><svg viewBox="0 0 247 247" data-background-color="#ffffff" preserveAspectRatio="xMidYMid meet" height="2000" width="2000" xmlns="http://www.w3.org/2000/svg" xmlnsXlink="http://www.w3.org/1999/xlink"><g id="tight-bounds" transform="matrix(1,0,0,1,-0.09999999999999432,-0.10008255507349872)"><svg viewBox="0 0 247.2 247.2" height="247.2" width="247.2"><g><svg viewBox="0 0 247.2 247.2" height="247.2" width="247.2"><g><svg viewBox="0 0 247.2 247.2" height="247.2" width="247.2"><g><svg viewBox="0 0 247.2 247.2" height="247.2" width="247.2"><g id="textblocktransform"><svg viewBox="0 0 247.2 247.2" height="247.2" width="247.2" id="textblock"><g><svg viewBox="0 0 247.2 247.2" height="247.2" width="247.2"><g transform="matrix(1,0,0,1,65.33440123022848,84.50893596551056)"><svg viewBox="0 0 116.53119753954303 78.18212806897887" height="78.18212806897887" width="116.53119753954303"><g><svg xmlns="http://www.w3.org/2000/svg" xmlnsXlink="http://www.w3.org/1999/xlink" version="1.1" x="0" y="0" viewBox="1 22.250000000000004 98 65.74933333333334" enable-background="new 0 0 100 100" xmlSpace="preserve" height="78.18212806897887" width="116.53119753954303" class="icon-eg-0" data-fill-palette-color="accent" id="eg-0"><path d="M95.094 38.507c-1.052-0.352-1.909-1.111-2.379-2.102 0 0.001 0 0.002 0 0.003-0.894-5.214-5.089-9.289-10.361-10.001v-0.093H78.77c0-2.248-1.822-4.064-4.064-4.064-2.244 0-4.064 1.817-4.064 4.064 0 0-32.802-0.03-33.001-0.03-11.841 0-22.082 6.766-27.129 16.629-0.024 0.036-0.057 0.067-0.077 0.104C7.156 48.988 1 52.487 1 52.487l2.216 3.428c1.331 1.185 2.6 1.542 3.961 1.348 0.056 3.445 0.685 6.747 1.794 9.821L8.955 67.09c0 0 3.282 17.126 7.735 20.188 2.36 1.623 11.453 0 11.453 0l-0.039-1.571C28.117 85.711 28 81.529 28 81.529c0.134-0.982 0.381-1.929 0.734-2.822 1.544 0.263 3.165 0.413 4.848 0.413 6.19 0 11.643-1.905 14.842-4.799 0.664 0.625 1.265 1.318 1.774 2.078 0.078 3.296 0.531 6.188 1.673 7.704 1.709 2.27 10.921 3.146 10.921 3.146l4.134-22.017c0.516-1.786 1.069-5.699 1.069-5.699 1.399-4.931 5.812-8.578 11.128-8.833h3.23v-0.04c0.319 0.016 0.637 0.041 0.96 0.04C96.578 50.67 99 44.604 99 38.507H95.094z" fill="#ffffff" data-fill-palette-color="accent"></path></svg></g></svg></g><path d="M33.37 171.176v0c-0.529 0.186-1.001 0.161-1.416-0.075-0.413-0.23-0.707-0.593-0.882-1.09-0.175-0.497-0.234-0.908-0.178-1.231v0c0.151-0.032 0.29-0.07 0.416-0.115v0c0.717-0.252 1.247-0.807 1.59-1.662 0.336-0.854 0.26-1.976-0.23-3.367v0c-0.682-1.938-2.105-3.34-4.269-4.206-2.162-0.859-4.741-0.762-7.737 0.292-2.989 1.051-5.05 2.512-6.181 4.381-1.134 1.863-1.289 3.965-0.466 6.306v0c0.438 1.246 1.098 2.319 1.98 3.218 0.888 0.897 1.8 1.57 2.736 2.018v0c0.034 0.158-0.017 0.335-0.152 0.531-0.128 0.2-0.339 0.353-0.635 0.457v0c-0.78 0.274-1.901-0.166-3.361-1.321-1.46-1.155-2.547-2.746-3.26-4.773v0c-0.985-2.801-0.785-5.459 0.6-7.976 1.393-2.513 3.84-4.384 7.339-5.615 3.499-1.231 6.716-1.213 9.651 0.053 2.935 1.266 4.936 3.416 6.002 6.449v0c0.638 1.813 0.804 3.462 0.499 4.948-0.313 1.482-0.995 2.408-2.046 2.778zM53.156 196.365v0l-15.788 12.137c-0.513 0.394-0.689 0.883-0.527 1.465v0c-0.838 0.081-1.477-0.165-1.917-0.736v0c-0.76-0.989-0.522-1.959 0.716-2.911v0l7.101-5.458-7.867-10.235-7.069 5.434c-0.497 0.382-0.681 0.86-0.551 1.434v0c-0.838 0.081-1.481-0.17-1.929-0.752v0c-0.748-0.973-0.503-1.936 0.735-2.887v0l15.788-12.136c0.497-0.382 0.673-0.871 0.527-1.465v0c0.794-0.105 1.423 0.143 1.886 0.746v0c0.777 1.01 0.554 1.985-0.668 2.924v0l-7.1 5.458 7.867 10.235 7.069-5.434c0.497-0.382 0.673-0.871 0.527-1.465v0c0.794-0.105 1.423 0.143 1.886 0.746v0c0.764 0.994 0.536 1.961-0.686 2.9zM66.302 207.16l-5.468 8.044 3.584 2.436c1.55 1.054 2.963 1.498 4.237 1.331 1.271-0.161 2.336-0.873 3.195-2.136 0.863-1.269 1.138-2.529 0.827-3.781-0.311-1.252-1.241-2.405-2.792-3.459v0zM63.614 232.049v0c-0.513-0.349-0.854-0.778-1.023-1.289-0.173-0.505-0.269-1.32-0.287-2.445v0l-0.156-9.544-2.524-1.715-4.388 6.455c-0.364 0.535-0.378 1.054-0.041 1.557v0c-0.793 0.324-1.493 0.28-2.1-0.132v0c-1.021-0.694-1.092-1.686-0.215-2.978v0l10.93-16.081c0.368-0.541 0.39-1.066 0.066-1.576v0c0.895-0.368 1.861-0.199 2.899 0.506v0l4.378 2.976c2.163 1.47 3.543 3.166 4.14 5.089 0.601 1.917 0.324 3.725-0.831 5.424-1.159 1.705-2.559 2.721-4.202 3.049-1.637 0.331-3.385 0.055-5.243-0.83v0l0.422 9.205c0.036 0.944 0.377 1.676 1.024 2.196v0c-1.066 0.655-2.016 0.699-2.849 0.133zM92.271 220.685v0l-7.062 18.62c-0.222 0.586-0.128 1.09 0.283 1.51v0c-0.671 0.509-1.35 0.633-2.035 0.373v0c-1.148-0.435-1.445-1.383-0.892-2.843v0l7.063-18.619c0.222-0.586 0.115-1.094-0.321-1.524v0c0.62-0.507 1.286-0.625 1.997-0.356v0c1.191 0.452 1.514 1.398 0.967 2.839zM121.842 228.142v0c-0.073 0.623-0.303 1.096-0.691 1.42-0.387 0.324-0.796 0.461-1.227 0.41-0.431-0.051-0.904-0.197-1.419-0.439v0c0.134-0.34 0.221-0.679 0.26-1.017v0c0.096-0.815-0.243-1.624-1.015-2.426-0.772-0.803-1.92-1.293-3.444-1.473-1.517-0.178-2.771 0.004-3.762 0.547-0.983 0.536-1.538 1.341-1.664 2.414-0.127 1.08 0.231 2.069 1.073 2.967 0.835 0.897 1.891 1.713 3.169 2.447 1.277 0.734 2.55 1.478 3.818 2.232 1.274 0.761 2.325 1.656 3.151 2.687 0.82 1.03 1.161 2.131 1.023 3.304v0c-0.232 1.975-1.283 3.524-3.155 4.648-1.877 1.116-4.015 1.534-6.414 1.252-2.392-0.281-4.313-1.05-5.764-2.309-1.45-1.265-2.079-2.719-1.886-4.362v0c0.083-0.709 0.35-1.269 0.801-1.679 0.45-0.404 1.01-0.567 1.68-0.488 0.663 0.078 1.152 0.404 1.467 0.978v0c-0.565 0.404-0.897 1.03-0.997 1.878-0.099 0.841 0.28 1.652 1.136 2.43 0.857 0.772 2.1 1.254 3.73 1.446 1.63 0.191 3.094-0.064 4.392-0.765 1.299-0.707 2.02-1.671 2.162-2.89v0c0.091-0.775-0.164-1.524-0.764-2.245-0.6-0.722-1.383-1.355-2.346-1.898-0.957-0.542-1.995-1.148-3.112-1.816-1.111-0.668-2.141-1.329-3.092-1.985-0.945-0.648-1.702-1.463-2.273-2.443-0.577-0.981-0.8-2.025-0.67-3.132v0c0.211-1.796 1.18-3.183 2.906-4.162 1.727-0.98 3.687-1.341 5.881-1.084 2.2 0.258 3.962 0.925 5.286 2.001 1.325 1.076 1.911 2.26 1.76 3.552zM135.47 222.753v0l12.656-2.336c1.233-0.228 1.942 0.154 2.124 1.144v0c0.081 0.44-0.023 0.866-0.313 1.279v0c-0.608-0.207-1.361-0.227-2.261-0.061v0l-4.585 0.847 3.579 19.386c0.11 0.597 0.465 0.976 1.065 1.137v0c-0.31 0.783-0.806 1.238-1.489 1.363v0c-1.253 0.231-2.021-0.421-2.304-1.955v0l-3.587-19.426-5.373 0.992c-1.207 0.223-1.9-0.148-2.078-1.112v0c-0.085-0.459 0.006-0.886 0.272-1.282v0c0.65 0.178 1.415 0.186 2.294 0.024zM177.508 234.772v0c-1.083 0.533-1.99 0.058-2.722-1.426v0l-3.691-7.564-10.256-6.94c-0.844-0.506-1.634-0.593-2.37-0.261v0c-0.178-1.132 0.182-1.919 1.079-2.361 0.904-0.445 1.914-0.296 3.032 0.448v0l8.807 6.059 1.129-9.937c0.099-0.599 0.068-1.063-0.094-1.392-0.162-0.329-0.423-0.557-0.784-0.685v0c0.301-0.446 0.724-0.803 1.269-1.071 0.539-0.265 0.993-0.34 1.362-0.225 0.372 0.122 0.657 0.383 0.854 0.784 0.197 0.401 0.267 0.95 0.21 1.648v0l-1.786 12.614 3.824 7.833c0.315 0.64 0.751 1.073 1.307 1.297v0c-0.26 0.529-0.65 0.922-1.17 1.179zM212.259 201.588v0l-13.889-10.749c-0.496-0.384-1.013-0.43-1.551-0.138v0c-0.275-0.778-0.186-1.46 0.267-2.045v0c0.764-0.987 1.755-1.008 2.974-0.066v0l13.864 10.731c0.638 0.494 1.212 0.706 1.722 0.637 0.508-0.079 1.022-0.454 1.541-1.124v0l3.362-4.344c0.755-0.976 0.941-1.979 0.558-3.011v0c0.57-0.377 1.122-0.359 1.655 0.054v0c1.182 0.915 1.019 2.345-0.488 4.292v0l-3.466 4.479c-1.066 1.377-2.112 2.178-3.139 2.404-1.018 0.225-2.154-0.149-3.41-1.12zM233.124 170.122v0l2.48-6.305c0.467-1.186 0.377-2.243-0.269-3.17v0c0.211-0.225 0.476-0.372 0.797-0.44 0.327-0.065 0.627-0.044 0.9 0.064v0c1.372 0.54 1.609 1.952 0.71 4.237v0l-2.58 6.555c-0.63 1.602-1.419 2.66-2.367 3.177-0.949 0.516-2.149 0.488-3.602-0.084v0l-15.878-6.246c-0.627-0.247-1.146-0.15-1.555 0.291v0c-0.553-0.798-0.602-1.778-0.145-2.939v0l3.879-9.862c0.818-2.08 1.767-2.907 2.848-2.482v0c0.646 0.254 0.956 0.724 0.93 1.409v0c-0.751 0.378-1.36 1.161-1.827 2.346v0l-3.348 8.512 7.608 2.993 2.587-6.575c0.452-1.149 0.865-1.925 1.239-2.329 0.374-0.405 0.835-0.5 1.381-0.285 0.54 0.212 0.835 0.619 0.886 1.219v0c-0.512 0.444-1.004 1.268-1.479 2.473v0l-2.491 6.332 6.305 2.481c0.745 0.293 1.352 0.335 1.822 0.125 0.47-0.21 0.859-0.709 1.169-1.497z" fill="#ffffff" data-fill-palette-color="primary"></path><path d="M10.626 74.887V74.887C11.161 75.075 11.516 75.391 11.692 75.835 11.868 76.279 11.869 76.75 11.694 77.247 11.516 77.75 11.305 78.111 11.058 78.328V78.328C10.92 78.258 10.788 78.201 10.662 78.157V78.157C9.939 77.902 9.175 78.001 8.372 78.454 7.567 78.913 6.918 79.84 6.426 81.237V81.237C5.739 83.188 5.973 85.184 7.129 87.225 8.28 89.257 10.36 90.803 13.367 91.862 16.375 92.922 18.913 93.077 20.981 92.327 23.04 91.581 24.484 90.031 25.313 87.678V87.678C25.754 86.426 25.911 85.169 25.782 83.907 25.651 82.651 25.361 81.548 24.911 80.597V80.597C24.987 80.462 25.137 80.356 25.362 80.279 25.594 80.205 25.857 80.22 26.153 80.324V80.324C26.939 80.601 27.538 81.654 27.948 83.482 28.366 85.305 28.218 87.233 27.502 89.266V89.266C26.509 92.085 24.677 94.042 22.006 95.139 19.335 96.235 16.241 96.164 12.724 94.925 9.206 93.686 6.696 91.645 5.194 88.803 3.689 85.967 3.474 83.023 4.549 79.971V79.971C5.191 78.146 6.1 76.751 7.275 75.786 8.452 74.814 9.569 74.514 10.626 74.887ZM31.2 41.239V41.239L47.061 53.445C47.579 53.844 48.101 53.888 48.626 53.577V53.577C48.915 54.372 48.84 55.055 48.401 55.626V55.626C47.636 56.62 46.632 56.638 45.39 55.682V55.682L38.252 50.189 30.336 60.475 37.442 65.944C37.939 66.326 38.453 66.38 38.983 66.107V66.107C39.276 66.896 39.197 67.585 38.745 68.171V68.171C37.988 69.155 36.989 69.168 35.746 68.212V68.212L19.878 56C19.381 55.617 18.864 55.573 18.326 55.866V55.866C18.019 55.117 18.098 54.44 18.562 53.838V53.838C19.343 52.822 20.349 52.789 21.581 53.737V53.737L28.711 59.224 36.626 48.938 29.521 43.47C29.024 43.087 28.507 43.043 27.969 43.336V43.336C27.658 42.592 27.737 41.916 28.205 41.308V41.308C28.97 40.314 29.968 40.291 31.2 41.239ZM50.614 25.026L56.098 33.108 59.692 30.669C61.254 29.609 62.195 28.454 62.516 27.204 62.837 25.955 62.567 24.695 61.705 23.425 60.84 22.15 59.764 21.425 58.476 21.251 57.193 21.082 55.77 21.527 54.207 22.587V22.587ZM72.87 36.759V36.759C72.351 37.111 71.823 37.272 71.286 37.241 70.749 37.21 69.952 36.997 68.894 36.603V36.603L59.912 33.204 57.37 34.929 61.781 41.43C62.148 41.971 62.627 42.178 63.218 42.051V42.051C63.233 42.903 62.931 43.54 62.312 43.959V43.959C61.291 44.652 60.34 44.35 59.46 43.053V43.053L48.48 26.873C48.117 26.337 47.632 26.122 47.026 26.227V26.227C47.02 25.255 47.536 24.418 48.574 23.713V23.713L52.987 20.718C55.162 19.242 57.258 18.582 59.274 18.738 61.293 18.884 62.882 19.813 64.043 21.524 65.205 23.235 65.634 24.92 65.331 26.576 65.028 28.233 64.119 29.769 62.605 31.184V31.184L71.372 34.195C72.263 34.51 73.072 34.461 73.8 34.048V34.048C74.013 35.29 73.703 36.193 72.87 36.759ZM81.87 8.388V8.388L88.96 27.105C89.182 27.691 89.59 28.007 90.186 28.053V28.053C90.02 28.879 89.592 29.423 88.899 29.685V29.685C87.739 30.125 86.881 29.611 86.325 28.145V28.145L79.232 9.42C79.01 8.833 78.593 8.524 77.982 8.491V8.491C78.114 7.692 78.536 7.158 79.247 6.889V6.889C80.445 6.435 81.319 6.935 81.87 8.388ZM118.266 3.887V3.887C118.339 4.516 118.225 5.034 117.924 5.438 117.616 5.851 117.247 6.082 116.816 6.132 116.379 6.184 115.881 6.151 115.323 6.035V6.035C115.374 5.667 115.38 5.313 115.34 4.975V4.975C115.244 4.154 114.724 3.442 113.781 2.841 112.837 2.239 111.603 2.028 110.079 2.206 108.548 2.386 107.364 2.85 106.524 3.6 105.686 4.356 105.33 5.275 105.457 6.355 105.584 7.441 106.161 8.324 107.188 9.003 108.222 9.688 109.448 10.24 110.868 10.658 112.281 11.083 113.699 11.518 115.121 11.963 116.543 12.408 117.776 13.039 118.819 13.857 119.868 14.668 120.462 15.667 120.601 16.853V16.853C120.833 18.84 120.163 20.598 118.589 22.126 117.014 23.654 115.021 24.559 112.61 24.842 110.198 25.124 108.137 24.818 106.427 23.924 104.716 23.029 103.764 21.753 103.57 20.097V20.097C103.487 19.388 103.621 18.781 103.972 18.277 104.316 17.773 104.822 17.482 105.491 17.403 106.161 17.325 106.719 17.528 107.165 18.013V18.013C106.703 18.544 106.522 19.234 106.621 20.082 106.721 20.93 107.28 21.634 108.299 22.193 109.312 22.753 110.64 22.936 112.283 22.744 113.92 22.552 115.291 21.961 116.398 20.972 117.505 19.983 117.986 18.875 117.843 17.649V17.649C117.751 16.867 117.326 16.192 116.567 15.622 115.81 15.06 114.899 14.626 113.836 14.32 112.772 14.015 111.616 13.663 110.367 13.266 109.125 12.867 107.965 12.459 106.888 12.041 105.805 11.624 104.873 11.004 104.091 10.182 103.303 9.361 102.844 8.39 102.713 7.271V7.271C102.501 5.462 103.125 3.881 104.585 2.527 106.045 1.167 107.878 0.358 110.084 0.1 112.291-0.159 114.17 0.085 115.721 0.83 117.266 1.576 118.114 2.595 118.266 3.887ZM139.904 1.03V1.03L152.638 3.384C153.871 3.612 154.395 4.224 154.211 5.221V5.221C154.13 5.661 153.879 6.025 153.46 6.314V6.314C152.966 5.904 152.266 5.615 151.361 5.448V5.448L146.755 4.596 143.154 24.08C143.044 24.677 143.239 25.161 143.741 25.532V25.532C143.171 26.153 142.542 26.4 141.854 26.272V26.272C140.594 26.039 140.107 25.152 140.392 23.611V23.611L144 4.087 138.598 3.089C137.384 2.864 136.867 2.267 137.046 1.296V1.296C137.132 0.83 137.374 0.461 137.77 0.188V0.188C138.314 0.587 139.025 0.868 139.904 1.03ZM168.37 35.382V35.382C167.287 34.849 167.112 33.837 167.846 32.347V32.347L171.614 24.765 170.864 12.337C170.745 11.356 170.329 10.676 169.616 10.295V10.295C170.402 9.455 171.25 9.259 172.159 9.707 173.063 10.152 173.559 11.047 173.648 12.392V12.392L174.227 23.13 182.833 17.932C183.374 17.648 183.726 17.341 183.888 17.012 184.053 16.677 184.072 16.329 183.945 15.969V15.969C184.49 15.933 185.036 16.049 185.58 16.317 186.125 16.586 186.462 16.904 186.593 17.274 186.726 17.637 186.694 18.019 186.497 18.42 186.296 18.827 185.901 19.223 185.309 19.608V19.608L174.163 25.909 170.263 33.76C169.944 34.406 169.869 35.02 170.036 35.601V35.601C169.452 35.715 168.897 35.642 168.37 35.382ZM204.09 57.581V57.581L218.051 46.763C218.547 46.379 218.719 45.887 218.567 45.288V45.288C219.398 45.217 220.041 45.474 220.494 46.06V46.06C221.263 47.051 221.032 48.023 219.804 48.975V48.975L205.874 59.769C205.236 60.263 204.889 60.769 204.833 61.285 204.777 61.801 205.01 62.396 205.533 63.071V63.071L208.917 67.438C209.673 68.413 210.602 68.845 211.706 68.733V68.733C211.928 69.379 211.773 69.909 211.24 70.321V70.321C210.048 71.245 208.697 70.731 207.185 68.78V68.78L203.697 64.279C202.622 62.892 202.104 61.673 202.142 60.622 202.18 59.572 202.83 58.558 204.09 57.581ZM219.741 88.448V88.448L222.237 94.779C222.706 95.97 223.495 96.689 224.603 96.933V96.933C224.602 97.242 224.505 97.531 224.31 97.802 224.116 98.072 223.882 98.261 223.609 98.368V98.368C222.231 98.912 221.089 98.035 220.184 95.738V95.738L217.589 89.156C216.953 87.543 216.806 86.224 217.149 85.2 217.494 84.167 218.4 83.362 219.864 82.785V82.785L235.822 76.495C236.448 76.248 236.765 75.822 236.77 75.217V75.217C237.719 75.424 238.424 76.111 238.884 77.278V77.278L242.792 87.193C243.614 89.278 243.482 90.535 242.396 90.963V90.963C241.744 91.22 241.197 91.088 240.755 90.566V90.566C241.044 89.771 240.954 88.778 240.484 87.586V87.586L237.112 79.03 229.459 82.047 232.068 88.666C232.521 89.814 232.748 90.664 232.75 91.215 232.749 91.775 232.478 92.162 231.938 92.375 231.392 92.59 230.895 92.495 230.449 92.09V92.09C230.518 91.41 230.314 90.465 229.837 89.255V89.255L227.327 82.887 220.996 85.383C220.239 85.681 219.764 86.069 219.572 86.546 219.372 87.02 219.428 87.654 219.741 88.448Z" fill="#ffffff" data-fill-palette-color="primary"></path><path d="M2.78 126.9c0-5.191 4.209-9.4 9.4-9.4 5.191 0 9.4 4.209 9.4 9.4 0 5.191-4.209 9.4-9.4 9.4-5.191 0-9.4-4.209-9.4-9.4zM225.421 126.9c0-5.191 4.209-9.4 9.4-9.4 5.191 0 9.4 4.209 9.4 9.4 0 5.191-4.209 9.4-9.4 9.4-5.191 0-9.4-4.209-9.4-9.4z" fill="#ffffff" data-fill-palette-color="primary"></path></svg></g></svg></g></svg></g></svg></g></svg></g><defs></defs></svg><rect width="247.2" height="247.2" fill="none" stroke="none" visibility="hidden"></rect></g></svg></g></svg>