<?xml version="1.0" encoding="iso-8859-1"?>
<!-- Generator: Adobe Illustrator 19.0.0, SVG Export Plug-In . SVG Version: 6.00 Build 0)  -->
<svg version="1.1" id="Layer_1" xmlns="http://www.w3.org/2000/svg" xmlns:xlink="http://www.w3.org/1999/xlink" x="0px" y="0px"
	 viewBox="0 0 505 505" style="enable-background:new 0 0 505 505;" xml:space="preserve">
<circle style="fill:#324A5E;" cx="252.5" cy="252.5" r="252.5"/>
<g>
	<path style="fill:#ACB3BA;" d="M382,162.4h-63.8v-28.2c0-1.3,1-2.3,2.3-2.3h59.1c1.3,0,2.3,1,2.3,2.3v28.2H382z"/>
	<path style="fill:#ACB3BA;" d="M186.8,162.4H123v-28.2c0-1.3,1-2.3,2.3-2.3h59.2c1.3,0,2.3,1,2.3,2.3V162.4z"/>
</g>
<path style="fill:#FFFFFF;" d="M418.5,325.1l-5.2-23.8c-4.4-20-4-40.9,1.9-60.4c1.9-6.4,3-13.1,3.2-20.1
	c0.7-40.3-31.9-74.3-72.2-75.2c-9.6-0.2-18.8,1.4-27.3,4.6c-15.9,5.9-32.5,9.5-49.5,9.5h-32.2c-16.9,0-33.6-3.6-49.5-9.5
	c-8.5-3.1-17.7-4.8-27.3-4.6c-40.3,0.9-73,34.8-72.2,75.2c0.1,7,1.2,13.8,3.2,20.1c6,19.6,6.3,40.4,1.9,60.4l-7.1,32.3
	c-4.7,21.3,9.3,38.7,31.1,38.7l0,0c17.9,0,39.2-13.1,47.2-29.2l15.6-31.3c4.9,2.6,10.4,4,16.3,4c19.4,0,35-15.7,35-35
	c0-0.6-0.1-1.1-0.1-1.6h41.8c0,0.5-0.1,1.1-0.1,1.6c0,19.4,15.7,35,35,35c6.5,0,12.5-1.8,17.7-4.8l20.4,40.8
	c8.4,16.7,27.6,25.2,45.7,19.7C411.7,365.7,422.9,345,418.5,325.1z"/>
<g>
	<circle style="fill:#ACB3BA;" cx="308" cy="280.8" r="19.5"/>
	<circle style="fill:#ACB3BA;" cx="196.3" cy="280.8" r="19.5"/>
</g>
<circle style="fill:#84DBFF;" cx="134.2" cy="237.2" r="16.8"/>
<circle style="fill:#FFD05B;" cx="178.3" cy="193.2" r="16.8"/>
<circle style="fill:#4CDBC4;" cx="134.2" cy="193.2" r="16.8"/>
<circle style="fill:#FF7058;" cx="178.3" cy="237.2" r="16.8"/>
<g>
	<path style="fill:#4CDBC4;" d="M366.2,180.4l-15,15c-2.6,2.6-6.7,2.6-9.3,0l-15-15c-3.3-3.3-2.2-8.8,2.1-10.7
		c11.2-4.8,23.9-4.8,35.1,0C368.4,171.6,369.5,177.1,366.2,180.4z"/>
	<path style="fill:#4CDBC4;" d="M316.9,190.6l15,15c2.6,2.6,2.6,6.7,0,9.3l-15,15c-3.3,3.3-8.8,2.2-10.7-2.1
		c-4.8-11.2-4.8-23.9,0-35.1C308.1,188.4,313.6,187.3,316.9,190.6z"/>
	<path style="fill:#4CDBC4;" d="M351.3,224.9l15,15c3.3,3.3,2.2,8.8-2.1,10.7c-11.2,4.8-23.9,4.8-35,0c-4.3-1.8-5.3-7.4-2.1-10.7
		l15-15C344.6,222.4,348.7,222.4,351.3,224.9z"/>
	<path style="fill:#4CDBC4;" d="M376.4,229.8l-15-15c-2.6-2.6-2.6-6.7,0-9.3l15-15c3.3-3.3,8.8-2.2,10.7,2.1
		c4.8,11.2,4.8,23.9,0,35.1C385.2,232,379.7,233.1,376.4,229.8z"/>
</g>
<g>
</g>
<g>
</g>
<g>
</g>
<g>
</g>
<g>
</g>
<g>
</g>
<g>
</g>
<g>
</g>
<g>
</g>
<g>
</g>
<g>
</g>
<g>
</g>
<g>
</g>
<g>
</g>
<g>
</g>
</svg>
