<svg xmlns="http://www.w3.org/2000/svg" version="1.1" xmlnsXlink="http://www.w3.org/1999/xlink" xmlnssvgjs="http://svgjs.dev/svgjs" width="2000" height="2250" viewBox="0 0 2000 2250"><g transform="matrix(1,0,0,1,0,0)"><svg viewBox="0 0 320 360" data-background-color="#ffffff" preserveAspectRatio="xMidYMid meet" height="2250" width="2000" xmlns="http://www.w3.org/2000/svg" xmlnsXlink="http://www.w3.org/1999/xlink"><g id="tight-bounds" transform="matrix(1,0,0,1,0,0)"><svg viewBox="0 0 320 360" height="360" width="320"><g><svg></svg></g><g><svg viewBox="0 0 320 360" height="360" width="320"><g><path d="M297.491 100.645c-12.426-21.51-112.674-79.355-137.491-79.355-24.817 0-125.028 57.845-137.491 79.355-11.591 20.02-11.591 138.726 0 158.746 12.463 21.474 112.674 79.319 137.491 79.319 24.817 0 125.064-57.845 137.491-79.355 11.591-20.02 11.591-138.69 0-158.71zM309.481 93.705c-14.461-24.998-119.469-86.295-149.481-86.295-30.012 0-135.02 61.297-149.481 86.295-14.025 24.199-14.025 148.391 0 172.59 14.461 24.998 119.469 86.295 149.481 86.295 30.012 0 135.02-61.297 149.481-86.259 14.025-24.235 14.025-148.427 0-172.626zM300.906 261.353c-12.753 22.055-115.472 81.317-140.906 81.318-25.434 0-128.153-59.298-140.906-81.354-11.881-20.529-11.881-142.178 0-162.707 12.753-22.019 115.472-81.281 140.906-81.281 25.434 0 128.153 59.298 140.906 81.318 11.881 20.529 11.881 142.178 0 162.706z" fill="#000000" fill-rule="nonzero" stroke="none" stroke-width="1" stroke-linecap="butt" stroke-linejoin="miter" stroke-miterlimit="10" stroke-dasharray="" stroke-dashoffset="0" font-family="none" font-weight="none" font-size="none" text-anchor="none" style="mix-blend-mode: normal" data-fill-palette-color="tertiary"></path></g><g transform="matrix(1,0,0,1,48,140.13462519122896)"><svg viewBox="0 0 224 79.73074961754207" height="79.73074961754207" width="224"><g><svg viewBox="0 0 224 79.73074961754207" height="79.73074961754207" width="224"><g><svg viewBox="0 0 224 79.73074961754207" height="79.73074961754207" width="224"><g><svg viewBox="0 0 224 79.73074961754207" height="79.73074961754207" width="224"><g><svg viewBox="0 0 224 79.73074961754207" height="79.73074961754207" width="224"><g><svg viewBox="0 0 224 79.73074961754207" height="79.73074961754207" width="224"><g transform="matrix(1,0,0,1,0,0)"><svg width="224" viewBox="2.55 -34.55 98.05 34.9" height="79.73074961754207" data-palette-color="#ffffff"><path d="M23.65-24.85L23.65-24.85Q23.65-25.9 22.78-26.65 21.9-27.4 20.7-27.4L20.7-27.4Q18.3-27.4 16.75-24.68 15.2-21.95 15.2-18.5L15.2-18.5Q15.2-15.85 16.2-13.73 17.2-11.6 19.1-10.35 21-9.1 23.5-9.1L23.5-9.1Q25.35-9.1 27.05-9.83 28.75-10.55 29.8-11.43 30.85-12.3 31.98-13.03 33.1-13.75 33.95-13.75L33.95-13.75Q35.05-13.75 35.85-12.88 36.65-12 36.65-11.05L36.65-11.05Q36.65-10 36.02-8.6 35.4-7.2 34.05-5.63 32.7-4.05 30.9-2.73 29.1-1.4 26.43-0.53 23.75 0.35 20.8 0.35L20.8 0.35Q16.9 0.35 13.58-0.83 10.25-2 7.8-4.17 5.35-6.35 3.95-9.65 2.55-12.95 2.55-17.05L2.55-17.05Q2.55-25.15 7.4-29.85 12.25-34.55 20.1-34.55L20.1-34.55Q24.1-34.55 27.5-33.2 30.9-31.85 32.9-29.45 34.9-27.05 34.9-24.2L34.9-24.2Q34.9-20.9 32.7-18.23 30.5-15.55 27-15.55L27-15.55Q25-15.55 23.4-16.65 21.8-17.75 21.8-19.8L21.8-19.8Q21.8-20.75 22.73-22.45 23.65-24.15 23.65-24.85ZM60.15-15L60.15-7.5Q60.15-3.45 58.7-1.73 57.25 0 54.25 0L54.25 0Q51.35 0 50-1.58 48.65-3.15 48.6-7.15L48.6-7.15 48.55-15.25 40.85-24.25Q38.75-26.65 38.75-28.4L38.75-28.4Q38.75-31.15 40.85-32.75L40.85-32.75Q42.85-34.25 44.4-34.25L44.4-34.25Q46.55-34.25 48.25-32.3L48.25-32.3 54.35-25.2 59.45-31.15Q62-34.2 64.9-34.2L64.9-34.2Q67.05-34.2 68.25-33L68.25-33Q70.3-30.95 70.3-29.05L70.3-29.05Q70.3-28 69.6-26.83 68.9-25.65 67.35-23.8L67.35-23.8 60.15-15ZM94.85 0L81.8 0Q79.5-0.05 78.1-0.73 76.7-1.4 76-2.95 75.3-4.5 75.3-7.1L75.3-7.1 75.3-28.25Q75.3-30.9 76.85-32.58 78.4-34.25 80.95-34.25L80.95-34.25Q83.95-34.25 85.37-33.15 86.8-32.05 86.8-28.7L86.8-28.7 86.8-8.65 95.35-8.65Q98.25-8.65 99.42-7.8 100.6-6.95 100.6-4.3L100.6-4.3Q100.6-1.6 99.25-0.8 97.9 0 94.85 0L94.85 0Z" opacity="1" transform="matrix(1,0,0,1,0,0)" fill="#ffffff" class="undefined-text-0" data-fill-palette-color="quaternary" id="text-0"></path></svg></g></svg></g></svg></g></svg></g></svg></g></svg></g></svg></g></svg></g><defs></defs></svg><rect width="320" height="360" fill="none" stroke="none" visibility="hidden"></rect></g></svg></g></svg>